<svg xmlns="http://www.w3.org/2000/svg" viewBox="0 0 349 133"><defs><style>.a{fill:none;stroke:#000}.b{fill:pink}.c,.d{font-family:&quot;Consolas&quot;;font-size:10pt}.d{font-family:&quot;CambriaMath&quot;}</style></defs><path d="M3 7h31v21H3zm34 0h26v21H37zm29 0h18v21H66zm21 0h17v21H87zm20 0h17v21h-17zm20 0h18v21h-18zm21 0h17v21h-17zm20 0h17v21h-17zm20 0h18v21h-18zm21 0h17v21h-17zm20 0h20v21h-20zm23 0h23v21h-23zm26 0h20v21h-20zm23 0h46v21h-46zM3 31h51v21H3zm54 0h20v21H57zm23 0h17v21H80zm20 0h18v21h-18zm21 0h17v21h-17zm20 0h17v21h-17zm20 0h18v21h-18zm21 0h17v21h-17zm20 0h17v21h-17zm20 0h20v21h-20zm23 0h20v21h-20zm23 0h22v21h-22zm25 0h18v21h-18zm21 0h33v21h-33zM3 55h60v21H3zm63 0h18v21H66zm21 0h17v21H87zm20 0h17v21h-17zm20 0h18v21h-18zm21 0h17v21h-17zm20 0h17v21h-17z" class="a"/><path d="M187 54h19v22h-19z" class="b"/><path d="M188 55h18v21h-18z" class="a"/><path d="M208 54h18v22h-18z" class="b"/><path d="M209 55h17v21h-17zm20 0h20v21h-20z" class="a"/><path d="M251 54h24v22h-24z" class="b"/><path d="M252 55h23v21h-23z" class="a"/><path d="M277 54h21v22h-21z" class="b"/><path d="M278 55h20v21h-20z" class="a"/><path d="M300 54h47v22h-47z" class="b"/><path d="M301 55h46v21h-46z" class="a"/><path d="M2 78h68v22H2Z" class="b"/><path d="M3 79h67v21H3zm70 0h17v21H73zm20 0h18v21H93zm21 0h17v21h-17zm20 0h18v21h-18zm21 0h17v21h-17zm20 0h17v21h-17zm20 0h17v21h-17zm20 0h19v21h-19zm22 0h20v21h-20zm23 0h23v21h-23zm26 0h61v21h-61z" class="a"/><path d="M2 102h44v22H2Z" class="b"/><path d="M3 103h43v21H3zm46 0h28v21H49zm31 0h24v21H80z" class="a"/><path d="M106 102h113v22H106z" class="b"/><path d="M107 103h112v21H107zm115 0h27v21h-27zm30 0h31v21h-31zm34 0h25v21h-25zm28 0h33v21h-33z" class="a"/><text xml:space="preserve" class="c"><tspan x="11 18" y="22">`~</tspan></text><text xml:space="preserve" class="c"><tspan x="43 50" y="22">1!</tspan></text><text xml:space="preserve" class="c"><tspan x="67 74" y="22">2@</tspan></text><text xml:space="preserve" class="c"><tspan x="88 95" y="22">3#</tspan></text><text xml:space="preserve" class="c"><tspan x="108 115" y="22">4$</tspan></text><text xml:space="preserve" class="c"><tspan x="128 136" y="22">5%</tspan></text><text xml:space="preserve" class="c"><tspan x="149 156" y="22">6^</tspan></text><text xml:space="preserve" class="c"><tspan x="169 176" y="22">7&amp;</tspan></text><text xml:space="preserve" class="c"><tspan x="189 197" y="22">8*</tspan></text><text xml:space="preserve" class="c"><tspan x="210 217" y="22">9(</tspan></text><text xml:space="preserve" class="c"><tspan x="232 239" y="22">0)</tspan></text><text xml:space="preserve" class="c"><tspan x="256 263" y="22">-_</tspan></text><text xml:space="preserve" class="c"><tspan x="280 288" y="22">=+</tspan></text><text xml:space="preserve" class="d"><tspan x="316" y="22">⟵</tspan></text><text xml:space="preserve" class="d"><tspan x="12" y="46">↹</tspan></text><text xml:space="preserve" class="c"><tspan x="23 31 38" y="46">Tab</tspan></text><text xml:space="preserve" class="c"><tspan x="63" y="46">Q</tspan></text><text xml:space="preserve" class="c"><tspan x="84" y="46">W</tspan></text><text xml:space="preserve" class="c"><tspan x="105" y="46">E</tspan></text><text xml:space="preserve" class="c"><tspan x="125" y="46">R</tspan></text><text xml:space="preserve" class="c"><tspan x="146" y="46">T</tspan></text><text xml:space="preserve" class="c"><tspan x="166" y="46">Y</tspan></text><text xml:space="preserve" class="c"><tspan x="186" y="46">U</tspan></text><text xml:space="preserve" class="c"><tspan x="207" y="46">I</tspan></text><text xml:space="preserve" class="c"><tspan x="228" y="46">O</tspan></text><text xml:space="preserve" class="c"><tspan x="251" y="46">P</tspan></text><text xml:space="preserve" class="c"><tspan x="271 278" y="46">[{</tspan></text><text xml:space="preserve" class="c"><tspan x="294 301" y="46">]}</tspan></text><text xml:space="preserve" class="c"><tspan x="323 330" y="46">\|</tspan></text><text xml:space="preserve" class="c"><tspan x="4 11 18 25 33 40 47 54" y="70">CapsLock</tspan></text><text xml:space="preserve" class="c"><tspan x="71" y="70">A</tspan></text><text xml:space="preserve" class="c"><tspan x="91" y="70">S</tspan></text><text xml:space="preserve" class="c"><tspan x="112" y="70">D</tspan></text><text xml:space="preserve" class="c"><tspan x="132" y="70">F</tspan></text><text xml:space="preserve" class="c"><tspan x="152" y="70">G</tspan></text><text xml:space="preserve" class="c"><tspan x="173" y="70">H</tspan></text><text xml:space="preserve" class="c"><tspan x="193" y="70">J</tspan></text><text xml:space="preserve" class="c"><tspan x="213" y="70">K</tspan></text><text xml:space="preserve" class="c"><tspan x="235" y="70">L</tspan></text><text xml:space="preserve" class="c"><tspan x="256 263" y="70">;:</tspan></text><text xml:space="preserve" class="c"><tspan x="280 288" y="70">&apos;&quot;</tspan></text><text xml:space="preserve" class="c"><tspan x="302 309 317 324 331" y="70">Enter</tspan></text><text xml:space="preserve" class="d"><tspan x="338" y="70">↵</tspan></text><text xml:space="preserve" class="d"><tspan x="14" y="94">⇧</tspan></text><text xml:space="preserve" class="c"><tspan x="22 29 36 44 51" y="94">Shift</tspan></text><text xml:space="preserve" class="c"><tspan x="78" y="94">Z</tspan></text><text xml:space="preserve" class="c"><tspan x="98" y="94">X</tspan></text><text xml:space="preserve" class="c"><tspan x="119" y="94">C</tspan></text><text xml:space="preserve" class="c"><tspan x="139" y="94">V</tspan></text><text xml:space="preserve" class="c"><tspan x="159" y="94">B</tspan></text><text xml:space="preserve" class="c"><tspan x="179" y="94">N</tspan></text><text xml:space="preserve" class="c"><tspan x="200" y="94">M</tspan></text><text xml:space="preserve" class="c"><tspan x="217 224" y="94">,&lt;</tspan></text><text xml:space="preserve" class="c"><tspan x="239 246" y="94">.&gt;</tspan></text><text xml:space="preserve" class="c"><tspan x="264 271" y="94">/?</tspan></text><text xml:space="preserve" class="d"><tspan x="294" y="94">⇧</tspan></text><text xml:space="preserve" class="c"><tspan x="302 309 316 324 331" y="94">Shift</tspan></text><text xml:space="preserve" class="c"><tspan x="10 17 24 31" y="118">Ctrl</tspan></text><text xml:space="preserve" class="d"><tspan x="55" y="118">⌘</tspan></text><text xml:space="preserve" class="c"><tspan x="81 88 95" y="118">Alt</tspan></text><text xml:space="preserve" class="c"><tspan x="225 232 239" y="118">Alt</tspan></text><text xml:space="preserve" class="d"><tspan x="260" y="118">⌘</tspan></text><text xml:space="preserve" class="d"><tspan x="292" y="118">▤</tspan></text><text xml:space="preserve" class="c"><tspan x="315 323 330 337" y="118">Ctrl</tspan></text></svg>
