<svg xmlns="http://www.w3.org/2000/svg" xml:space="preserve" viewBox="0 0 816 1056"><defs><clipPath id="a" clipPathUnits="userSpaceOnUse"><path d="M117 117h2315v3065H117Z" clip-rule="evenodd"/></clipPath></defs><g clip-path="url(#a)" transform="matrix(0.31999998,0,0,0.31999998,0,2.64e-5)"><path fill="gray" d="M142 142h1068v3H142Z"/><path fill="#2c2c2c" d="M142 514h1068v3H142Z"/><path fill="#2c2c2c" d="M1207 145v372h3V142"/><path fill="gray" d="M142 142v375l3-3V142"/><path fill="#2c2c2c" d="M151 151h28v3h-28z"/><path fill="gray" d="M151 160h28v4h-28z"/><path fill="gray" d="M176 154v10h3v-13"/><path fill="#2c2c2c" d="M151 151v13l3-4v-9m31 0h32v3h-32Z"/><path fill="gray" d="M185 160h32v4h-32Z"/><path fill="gray" d="M214 154v10h3v-13"/><path fill="#2c2c2c" d="M185 151v13l4-4v-9m34 0h28v3h-28z"/><path fill="gray" d="M223 160h28v4h-28z"/><path fill="gray" d="M248 154v10h3v-13"/><path fill="#2c2c2c" d="M223 151v13l3-4v-9m31 0h32v3h-32Z"/><path fill="gray" d="M257 160h32v4h-32Z"/><path fill="gray" d="M285 154v10h4v-13"/><path fill="#2c2c2c" d="M257 151v13l3-4v-9m35 0h19v3h-19z"/><path fill="gray" d="M295 160h19v4h-19z"/><path fill="gray" d="M310 154v10h4v-13"/><path fill="#2c2c2c" d="M295 151v13l3-4v-9m22 0h22v3h-22z"/><path fill="gray" d="M320 160h22v4h-22z"/><path fill="gray" d="M339 154v10h3v-13"/><path fill="#2c2c2c" d="M320 151v13l3-4v-9m25 0h16v3h-16z"/><path fill="gray" d="M348 160h16v4h-16z"/><path fill="gray" d="M360 154v10h4v-13"/><path fill="#2c2c2c" d="M348 151v13l3-4v-9m19 0h15v3h-15z"/><path fill="gray" d="M370 160h15v4h-15z"/><path fill="gray" d="M382 154v10h3v-13"/><path fill="#2c2c2c" d="M370 151v13l3-4v-9m19 0h15v3h-15z"/><path fill="gray" d="M392 160h15v4h-15z"/><path fill="gray" d="M404 154v10h3v-13"/><path fill="#2c2c2c" d="M392 151v13l3-4v-9m19 0h12v3h-12z"/><path fill="gray" d="M414 160h12v4h-12z"/><path fill="gray" d="M423 154v10h3v-13"/><path fill="#2c2c2c" d="M414 151v13l3-4v-9m15 0h16v3h-16z"/><path fill="gray" d="M432 160h16v4h-16z"/><path fill="gray" d="M445 154v10h3v-13"/><path fill="#2c2c2c" d="M432 151v13l3-4v-9m19 0h16v3h-16z"/><path fill="gray" d="M454 160h16v4h-16z"/><path fill="gray" d="M467 154v10h3v-13"/><path fill="#2c2c2c" d="M454 151v13l3-4v-9m19 0h16v3h-16z"/><path fill="gray" d="M476 160h16v4h-16z"/><path fill="gray" d="M489 154v10h3v-13"/><path fill="#2c2c2c" d="M476 151v13l3-4v-9m19 0h16v3h-16z"/><path fill="gray" d="M498 160h16v4h-16z"/><path fill="gray" d="M510 154v10h4v-13"/><path fill="#2c2c2c" d="M498 151v13l3-4v-9m19 0h12v3h-12z"/><path fill="gray" d="M520 160h12v4h-12z"/><path fill="gray" d="M529 154v10h3v-13"/><path fill="#2c2c2c" d="M520 151v13l3-4v-9m16 0h15v3h-15z"/><path fill="gray" d="M539 160h15v4h-15z"/><path fill="gray" d="M551 154v10h3v-13"/><path fill="#2c2c2c" d="M539 151v13l3-4v-9m18 0h16v3h-16z"/><path fill="gray" d="M560 160h16v4h-16z"/><path fill="gray" d="M573 154v10h3v-13"/><path fill="#2c2c2c" d="M560 151v13l4-4v-9m18 0h16v3h-16z"/><path fill="gray" d="M582 160h16v4h-16z"/><path fill="gray" d="M595 154v10h3v-13"/><path fill="#2c2c2c" d="M582 151v13l3-4v-9m19 0h16v3h-16z"/><path fill="gray" d="M604 160h16v4h-16z"/><path fill="gray" d="M617 154v10h3v-13"/><path fill="#2c2c2c" d="M604 151v13l3-4v-9m19 0h13v3h-13z"/><path fill="gray" d="M626 160h13v4h-13z"/><path fill="gray" d="M635 154v10h4v-13"/><path fill="#2c2c2c" d="M626 151v13l3-4v-9m16 0h15v3h-15z"/><path fill="gray" d="M645 160h15v4h-15z"/><path fill="gray" d="M657 154v10h3v-13"/><path fill="#2c2c2c" d="M645 151v13l3-4v-9m19 0h15v3h-15z"/><path fill="gray" d="M667 160h15v4h-15z"/><path fill="gray" d="M679 154v10h3v-13"/><path fill="#2c2c2c" d="M667 151v13l3-4v-9m19 0h15v3h-15z"/><path fill="gray" d="M689 160h15v4h-15z"/><path fill="gray" d="M701 154v10h3v-13"/><path fill="#2c2c2c" d="M689 151v13l3-4v-9m18 0h13v3h-13z"/><path fill="gray" d="M710 160h13v4h-13z"/><path fill="gray" d="M720 154v10h3v-13"/><path fill="#2c2c2c" d="M710 151v13l4-4v-9m15 0h16v3h-16z"/><path fill="gray" d="M729 160h16v4h-16z"/><path fill="gray" d="M742 154v10h3v-13"/><path fill="#2c2c2c" d="M729 151v13l3-4v-9m19 0h16v3h-16z"/><path fill="gray" d="M751 160h16v4h-16z"/><path fill="gray" d="M764 154v10h3v-13"/><path fill="#2c2c2c" d="M751 151v13l3-4v-9m19 0h16v3h-16z"/><path fill="gray" d="M773 160h16v4h-16z"/><path fill="gray" d="M785 154v10h4v-13"/><path fill="#2c2c2c" d="M773 151v13l3-4v-9m19 0h12v3h-12z"/><path fill="gray" d="M795 160h12v4h-12z"/><path fill="gray" d="M804 154v10h3v-13"/><path fill="#2c2c2c" d="M795 151v13l3-4v-9m16 0h15v3h-15z"/><path fill="gray" d="M814 160h15v4h-15z"/><path fill="gray" d="M826 154v10h3v-13"/><path fill="#2c2c2c" d="M814 151v13l3-4v-9m18 0h16v3h-16z"/><path fill="gray" d="M835 160h16v4h-16z"/><path fill="gray" d="M848 154v10h3v-13"/><path fill="#2c2c2c" d="M835 151v13l4-4v-9m18 0h16v3h-16z"/><path fill="gray" d="M857 160h16v4h-16z"/><path fill="gray" d="M870 154v10h3v-13"/><path fill="#2c2c2c" d="M857 151v13l3-4v-9m19 0h16v3h-16z"/><path fill="gray" d="M879 160h16v4h-16z"/><path fill="gray" d="M892 154v10h3v-13"/><path fill="#2c2c2c" d="M879 151v13l3-4v-9m19 0h16v3h-16z"/><path fill="gray" d="M901 160h16v4h-16z"/><path fill="gray" d="M914 154v10h3v-13"/><path fill="#2c2c2c" d="M901 151v13l3-4v-9m19 0h16v3h-16z"/><path fill="gray" d="M923 160h16v4h-16z"/><path fill="gray" d="M935 154v10h4v-13"/><path fill="#2c2c2c" d="M923 151v13l3-4v-9m19 0h15v3h-15z"/><path fill="gray" d="M945 160h15v4h-15z"/><path fill="gray" d="M957 154v10h3v-13"/><path fill="#2c2c2c" d="M945 151v13l3-4v-9m19 0h18v3h-18z"/><path fill="gray" d="M967 160h18v4h-18z"/><path fill="gray" d="M982 154v10h3v-13"/><path fill="#2c2c2c" d="M967 151v13l3-4v-9m22 0h15v3h-15z"/><path fill="gray" d="M992 160h15v4h-15z"/><path fill="gray" d="M1004 154v10h3v-13"/><path fill="#2c2c2c" d="M992 151v13l3-4v-9m19 0h15v3h-15z"/><path fill="gray" d="M1014 160h15v4h-15z"/><path fill="gray" d="M1026 154v10h3v-13"/><path fill="#2c2c2c" d="M1014 151v13l3-4v-9m18 0h16v3h-16z"/><path fill="gray" d="M1035 160h16v4h-16z"/><path fill="gray" d="M1048 154v10h3v-13"/><path fill="#2c2c2c" d="M1035 151v13l4-4v-9m18 0h13v3h-13z"/><path fill="gray" d="M1057 160h13v4h-13z"/><path fill="gray" d="M1067 154v10h3v-13"/><path fill="#2c2c2c" d="M1057 151v13l3-4v-9m16 0h16v3h-16z"/><path fill="gray" d="M1076 160h16v4h-16z"/><path fill="gray" d="M1089 154v10h3v-13"/><path fill="#2c2c2c" d="M1076 151v13l3-4v-9m19 0h22v3h-22z"/><path fill="gray" d="M1098 160h22v4h-22z"/><path fill="gray" d="M1117 154v10h3v-13"/><path fill="#2c2c2c" d="M1098 151v13l3-4v-9m25 0h22v3h-22z"/><path fill="gray" d="M1126 160h22v4h-22z"/><path fill="gray" d="M1145 154v10h3v-13"/><path fill="#2c2c2c" d="M1126 151v13l3-4v-9m25 0h22v3h-22z"/><path fill="gray" d="M1154 160h22v4h-22z"/><path fill="gray" d="M1173 154v10h3v-13"/><path fill="#2c2c2c" d="M1154 151v13l3-4v-9m25 0h19v3h-19z"/><path fill="gray" d="M1182 160h19v4h-19z"/><path fill="gray" d="M1198 154v10h3v-13"/><path fill="#2c2c2c" d="M1182 151v13l3-4v-9M151 170h100v3H151Z"/><path fill="gray" d="M151 229h100v3H151Z"/><path fill="gray" d="M248 173v59h3v-62"/><path fill="#2c2c2c" d="M151 170v62l3-3v-59m103 0h85v3h-85Z"/><path fill="gray" d="M257 229h85v3h-85Z"/><path fill="gray" d="M339 173v59h3v-62"/><path fill="#2c2c2c" d="M257 170v62l3-3v-59m88 0h59v3h-59Z"/><path fill="gray" d="M348 229h59v3h-59Z"/><path fill="gray" d="M404 173v59h3v-62"/><path fill="#2c2c2c" d="M348 170v62l3-3v-59m63 0h56v3h-56Z"/><path fill="gray" d="M414 229h56v3h-56Z"/><path fill="gray" d="M467 173v59h3v-62"/><path fill="#2c2c2c" d="M414 170v62l3-3v-59m59 0h56v3h-56z"/><path fill="gray" d="M476 229h56v3h-56z"/><path fill="gray" d="M529 173v59h3v-62"/><path fill="#2c2c2c" d="M476 170v62l3-3v-59m60 0h59v3h-59z"/><path fill="gray" d="M539 229h59v3h-59z"/><path fill="gray" d="M595 173v59h3v-62"/><path fill="#2c2c2c" d="M539 170v62l3-3v-59m62 0h56v3h-56z"/><path fill="gray" d="M604 229h56v3h-56z"/><path fill="gray" d="M657 173v59h3v-62"/><path fill="#2c2c2c" d="M604 170v62l3-3v-59m60 0h56v3h-56z"/><path fill="gray" d="M667 229h56v3h-56z"/><path fill="gray" d="M720 173v59h3v-62"/><path fill="#2c2c2c" d="M667 170v62l3-3v-59m59 0h60v3h-60z"/><path fill="gray" d="M729 229h60v3h-60z"/><path fill="gray" d="M785 173v59h4v-62"/><path fill="#2c2c2c" d="M729 170v62l3-3v-59m63 0h56v3h-56z"/><path fill="gray" d="M795 229h56v3h-56z"/><path fill="gray" d="M848 173v59h3v-62"/><path fill="#2c2c2c" d="M795 170v62l3-3v-59m59 0h60v3h-60z"/><path fill="gray" d="M857 229h60v3h-60z"/><path fill="gray" d="M914 173v59h3v-62"/><path fill="#2c2c2c" d="M857 170v62l3-3v-59m63 0h62v3h-62z"/><path fill="gray" d="M923 229h62v3h-62z"/><path fill="gray" d="M982 173v59h3v-62"/><path fill="#2c2c2c" d="M923 170v62l3-3v-59m66 0h59v3h-59z"/><path fill="gray" d="M992 229h59v3h-59z"/><path fill="gray" d="M1048 173v59h3v-62"/><path fill="#2c2c2c" d="M992 170v62l3-3v-59m62 0h144v3h-144z"/><path fill="gray" d="M1057 229h144v3h-144z"/><path fill="gray" d="M1198 173v59h3v-62"/><path fill="#2c2c2c" d="M1057 170v62l3-3v-59m-909 69h163v3H151Z"/><path fill="gray" d="M151 298h163v3H151Z"/><path fill="gray" d="M310 242v59h4v-62"/><path fill="#2c2c2c" d="M151 239v62l3-3v-59m166 0h65v3h-65Z"/><path fill="gray" d="M320 298h65v3h-65Z"/><path fill="gray" d="M382 242v59h3v-62"/><path fill="#2c2c2c" d="M320 239v62l3-3v-59m69 0h56v3h-56Z"/><path fill="gray" d="M392 298h56v3h-56Z"/><path fill="gray" d="M445 242v59h3v-62"/><path fill="#2c2c2c" d="M392 239v62l3-3v-59m59 0h60v3h-60z"/><path fill="gray" d="M454 298h60v3h-60z"/><path fill="gray" d="M510 242v59h4v-62"/><path fill="#2c2c2c" d="M454 239v62l3-3v-59m63 0h56v3h-56z"/><path fill="gray" d="M520 298h56v3h-56z"/><path fill="gray" d="M573 242v59h3v-62"/><path fill="#2c2c2c" d="M520 239v62l3-3v-59m59 0h57v3h-57z"/><path fill="gray" d="M582 298h57v3h-57z"/><path fill="gray" d="M635 242v59h4v-62"/><path fill="#2c2c2c" d="M582 239v62l3-3v-59m60 0h59v3h-59z"/><path fill="gray" d="M645 298h59v3h-59z"/><path fill="gray" d="M701 242v59h3v-62"/><path fill="#2c2c2c" d="M645 239v62l3-3v-59m62 0h57v3h-57z"/><path fill="gray" d="M710 298h57v3h-57z"/><path fill="gray" d="M764 242v59h3v-62"/><path fill="#2c2c2c" d="M710 239v62l4-3v-59m59 0h56v3h-56z"/><path fill="gray" d="M773 298h56v3h-56z"/><path fill="gray" d="M826 242v59h3v-62"/><path fill="#2c2c2c" d="M773 239v62l3-3v-59m59 0h60v3h-60z"/><path fill="gray" d="M835 298h60v3h-60z"/><path fill="gray" d="M892 242v59h3v-62"/><path fill="#2c2c2c" d="M835 239v62l4-3v-59m62 0h59v3h-59z"/><path fill="gray" d="M901 298h59v3h-59z"/><path fill="gray" d="M957 242v59h3v-62"/><path fill="#2c2c2c" d="M901 239v62l3-3v-59m63 0h62v3h-62z"/><path fill="gray" d="M967 298h62v3h-62z"/><path fill="gray" d="M1026 242v59h3v-62"/><path fill="#2c2c2c" d="M967 239v62l3-3v-59m65 0h57v3h-57z"/><path fill="gray" d="M1035 298h57v3h-57z"/><path fill="gray" d="M1089 242v59h3v-62"/><path fill="#2c2c2c" d="M1035 239v62l4-3v-59m59 0h103v3h-103z"/><path fill="gray" d="M1098 298h103v3h-103z"/><path fill="gray" d="M1198 242v59h3v-62"/><path fill="#2c2c2c" d="M1098 239v62l3-3v-59m-950 68h191v3H151Z"/><path fill="gray" d="M151 367h191v3H151Z"/><path fill="gray" d="M339 310v60h3v-63"/><path fill="#2c2c2c" d="M151 307v63l3-3v-60m194 0h59v3h-59Z"/><path fill="gray" d="M348 367h59v3h-59Z"/><path fill="gray" d="M404 310v60h3v-63"/><path fill="#2c2c2c" d="M348 307v63l3-3v-60m63 0h56v3h-56Z"/><path fill="gray" d="M414 367h56v3h-56Z"/><path fill="gray" d="M467 310v60h3v-63"/><path fill="#2c2c2c" d="M414 307v63l3-3v-60m59 0h56v3h-56z"/><path fill="gray" d="M476 367h56v3h-56z"/><path fill="gray" d="M529 310v60h3v-63"/><path fill="#2c2c2c" d="M476 307v63l3-3v-60m60 0h59v3h-59z"/><path fill="gray" d="M539 367h59v3h-59z"/><path fill="gray" d="M595 310v60h3v-63"/><path fill="#2c2c2c" d="M539 307v63l3-3v-60m62 0h56v3h-56z"/><path fill="gray" d="M604 367h56v3h-56z"/><path fill="gray" d="M657 310v60h3v-63"/><path fill="#2c2c2c" d="M604 307v63l3-3v-60m60 0h56v3h-56z"/><path fill="gray" d="M667 367h56v3h-56z"/><path fill="gray" d="M720 310v60h3v-63"/><path fill="#2c2c2c" d="M667 307v63l3-3v-60"/><path fill="pink" d="M729 307h60v63h-60z"/><path fill="#2c2c2c" d="M729 307h60v3h-60z"/><path fill="gray" d="M729 367h60v3h-60z"/><path fill="gray" d="M785 310v60h4v-63"/><path fill="#2c2c2c" d="M729 307v63l3-3v-60"/><path fill="pink" d="M795 307h56v63h-56z"/><path fill="#2c2c2c" d="M795 307h56v3h-56z"/><path fill="gray" d="M795 367h56v3h-56z"/><path fill="gray" d="M848 310v60h3v-63"/><path fill="#2c2c2c" d="M795 307v63l3-3v-60m59 0h60v3h-60z"/><path fill="gray" d="M857 367h60v3h-60z"/><path fill="gray" d="M914 310v60h3v-63"/><path fill="#2c2c2c" d="M857 307v63l3-3v-60"/><path fill="pink" d="M923 307h62v63h-62z"/><path fill="#2c2c2c" d="M923 307h62v3h-62z"/><path fill="gray" d="M923 367h62v3h-62z"/><path fill="gray" d="M982 310v60h3v-63"/><path fill="#2c2c2c" d="M923 307v63l3-3v-60"/><path fill="pink" d="M992 307h59v63h-59z"/><path fill="#2c2c2c" d="M992 307h59v3h-59z"/><path fill="gray" d="M992 367h59v3h-59z"/><path fill="gray" d="M1048 310v60h3v-63"/><path fill="#2c2c2c" d="M992 307v63l3-3v-60"/><path fill="pink" d="M1057 307h144v63h-144z"/><path fill="#2c2c2c" d="M1057 307h144v3h-144z"/><path fill="gray" d="M1057 367h144v3h-144z"/><path fill="gray" d="M1198 310v60h3v-63"/><path fill="#2c2c2c" d="M1057 307v63l3-3v-60"/><path fill="pink" d="M151 376h213v63H151Z"/><path fill="#2c2c2c" d="M151 376h213v3H151Z"/><path fill="gray" d="M151 435h213v4H151Z"/><path fill="gray" d="M360 379v60h4v-63"/><path fill="#2c2c2c" d="M151 376v63l3-4v-59m216 0h56v3h-56Z"/><path fill="gray" d="M370 435h56v4h-56Z"/><path fill="gray" d="M423 379v60h3v-63"/><path fill="#2c2c2c" d="M370 376v63l3-4v-59m59 0h60v3h-60z"/><path fill="gray" d="M432 435h60v4h-60z"/><path fill="gray" d="M489 379v60h3v-63"/><path fill="#2c2c2c" d="M432 376v63l3-4v-59m63 0h56v3h-56z"/><path fill="gray" d="M498 435h56v4h-56z"/><path fill="gray" d="M551 379v60h3v-63"/><path fill="#2c2c2c" d="M498 376v63l3-4v-59m59 0h60v3h-60z"/><path fill="gray" d="M560 435h60v4h-60z"/><path fill="gray" d="M617 379v60h3v-63"/><path fill="#2c2c2c" d="M560 376v63l4-4v-59m62 0h56v3h-56z"/><path fill="gray" d="M626 435h56v4h-56z"/><path fill="gray" d="M679 379v60h3v-63"/><path fill="#2c2c2c" d="M626 376v63l3-4v-59m60 0h56v3h-56z"/><path fill="gray" d="M689 435h56v4h-56z"/><path fill="gray" d="M742 379v60h3v-63"/><path fill="#2c2c2c" d="M689 376v63l3-4v-59m59 0h56v3h-56z"/><path fill="gray" d="M751 435h56v4h-56z"/><path fill="gray" d="M804 379v60h3v-63"/><path fill="#2c2c2c" d="M751 376v63l3-4v-59m60 0h59v3h-59z"/><path fill="gray" d="M814 435h59v4h-59z"/><path fill="gray" d="M870 379v60h3v-63"/><path fill="#2c2c2c" d="M814 376v63l3-4v-59m62 0h60v3h-60z"/><path fill="gray" d="M879 435h60v4h-60z"/><path fill="gray" d="M935 379v60h4v-63"/><path fill="#2c2c2c" d="M879 376v63l3-4v-59m63 0h62v3h-62z"/><path fill="gray" d="M945 435h62v4h-62z"/><path fill="gray" d="M1004 379v60h3v-63"/><path fill="#2c2c2c" d="M945 376v63l3-4v-59m66 0h187v3h-187z"/><path fill="gray" d="M1014 435h187v4h-187z"/><path fill="gray" d="M1198 379v60h3v-63"/><path fill="#2c2c2c" d="M1014 376v63l3-4v-59"/><path fill="pink" d="M151 445h138v62H151Z"/><path fill="#2c2c2c" d="M151 445h138v3H151Z"/><path fill="gray" d="M151 504h138v3H151Z"/><path fill="gray" d="M285 448v59h4v-62"/><path fill="#2c2c2c" d="M151 445v62l3-3v-59m141 0h90v3h-90Z"/><path fill="gray" d="M295 504h90v3h-90Z"/><path fill="gray" d="M382 448v59h3v-62"/><path fill="#2c2c2c" d="M295 445v62l3-3v-59m94 0h78v3h-78Z"/><path fill="gray" d="M392 504h78v3h-78Z"/><path fill="gray" d="M467 448v59h3v-62"/><path fill="#2c2c2c" d="M392 445v62l3-3v-59"/><path fill="pink" d="M476 445h353v62H476Z"/><path fill="#2c2c2c" d="M476 445h353v3H476Z"/><path fill="gray" d="M476 504h353v3H476Z"/><path fill="gray" d="M826 448v59h3v-62"/><path fill="#2c2c2c" d="M476 445v62l3-3v-59m356 0h82v3h-82z"/><path fill="gray" d="M835 504h82v3h-82z"/><path fill="gray" d="M914 448v59h3v-62"/><path fill="#2c2c2c" d="M835 445v62l4-3v-59m84 0h84v3h-84z"/><path fill="gray" d="M923 504h84v3h-84z"/><path fill="gray" d="M1004 448v59h3v-62"/><path fill="#2c2c2c" d="M923 445v62l3-3v-59m88 0h78v3h-78z"/><path fill="gray" d="M1014 504h78v3h-78z"/><path fill="gray" d="M1089 448v59h3v-62"/><path fill="#2c2c2c" d="M1014 445v62l3-3v-59m81 0h103v3h-103z"/><path fill="gray" d="M1098 504h103v3h-103z"/><path fill="gray" d="M1198 448v59h3v-62"/><path fill="#2c2c2c" d="M1098 445v62l3-3v-59"/><text font-family="Consolas" font-size="13" font-weight="400" style="-inkscape-font-specification:Consolas" transform="matrix(3.1250002,0,0,3.1250002,116.66667,116.66667) translate(13,32)"><tspan x="0 7" y="0">`~</tspan></text><text font-family="Consolas" font-size="13" font-weight="400" style="-inkscape-font-specification:Consolas" transform="matrix(3.1250002,0,0,3.1250002,116.66667,116.66667) translate(47.21875,32)"><tspan x="0 7" y="0">1!</tspan></text><text font-family="Consolas" font-size="13" font-weight="400" style="-inkscape-font-specification:Consolas" transform="matrix(3.1250002,0,0,3.1250002,116.66667,116.66667) translate(76.1875,32)"><tspan x="0 7" y="0">2@</tspan></text><text font-family="Consolas" font-size="13" font-weight="400" style="-inkscape-font-specification:Consolas" transform="matrix(3.1250002,0,0,3.1250002,116.66667,116.66667) translate(96.578125,32)"><tspan x="0 7" y="0">3#</tspan></text><text font-family="Consolas" font-size="13" font-weight="400" style="-inkscape-font-specification:Consolas" transform="matrix(3.1250002,0,0,3.1250002,116.66667,116.66667) translate(117.17187,32)"><tspan x="0 7" y="0">4$</tspan></text><text font-family="Consolas" font-size="13" font-weight="400" style="-inkscape-font-specification:Consolas" transform="matrix(3.1250002,0,0,3.1250002,116.66667,116.66667) translate(137.46875,32)"><tspan x="0 7" y="0">5%</tspan></text><text font-family="Consolas" font-size="13" font-weight="400" style="-inkscape-font-specification:Consolas" transform="matrix(3.1250002,0,0,3.1250002,116.66667,116.66667) translate(157.76562,32)"><tspan x="0 7" y="0">6^</tspan></text><text font-family="Consolas" font-size="13" font-weight="400" style="-inkscape-font-specification:Consolas" transform="matrix(3.1250002,0,0,3.1250002,116.66667,116.66667) translate(178.0625,32)"><tspan x="0 7" y="0">7&amp;</tspan></text><text font-family="Consolas" font-size="13" font-weight="400" style="-inkscape-font-specification:Consolas" transform="matrix(3.1250002,0,0,3.1250002,116.66667,116.66667) translate(198.35938,32)"><tspan x="0 7" y="0">8*</tspan></text><text font-family="Consolas" font-size="13" font-weight="400" style="-inkscape-font-specification:Consolas" transform="matrix(3.1250002,0,0,3.1250002,116.66667,116.66667) translate(218.65625,32)"><tspan x="0 7" y="0">9(</tspan></text><text font-family="Consolas" font-size="13" font-weight="400" style="-inkscape-font-specification:Consolas" transform="matrix(3.1250002,0,0,3.1250002,116.66667,116.66667) translate(239.48438,32)"><tspan x="0 7" y="0">0)</tspan></text><text font-family="Consolas" font-size="13" font-weight="400" style="-inkscape-font-specification:Consolas" transform="matrix(3.1250002,0,0,3.1250002,116.66667,116.66667) translate(260.42188,32)"><tspan x="0 7" y="0">-_</tspan></text><text font-family="Consolas" font-size="13" font-weight="400" style="-inkscape-font-specification:Consolas" transform="matrix(3.1250002,0,0,3.1250002,116.66667,116.66667) translate(281.75,32)"><tspan x="0 7" y="0">=+</tspan></text><text font-family="CambriaMath" font-size="13" font-weight="400" style="-inkscape-font-specification:CambriaMath" transform="matrix(3.1250002,0,0,3.1250002,116.66667,116.66667) translate(302.70313,31)"><tspan x="0" y="0">⟵</tspan></text><text font-family="CambriaMath" font-size="13" font-weight="400" style="-inkscape-font-specification:CambriaMath" transform="matrix(3.1250002,0,0,3.1250002,116.66667,116.66667) translate(13,53)"><tspan x="0" y="0">↹</tspan></text><text font-family="Consolas" font-size="13" font-weight="400" style="-inkscape-font-specification:Consolas" transform="matrix(3.1250002,0,0,3.1250002,116.66667,116.66667) translate(25,53)"><tspan x="0 7 14" y="0">Tab</tspan></text><text font-family="Consolas" font-size="13" font-weight="400" style="-inkscape-font-specification:Consolas" transform="matrix(3.1250002,0,0,3.1250002,116.66667,116.66667) translate(67.421875,54)"><tspan x="0" y="0">Q</tspan></text><text font-family="Consolas" font-size="13" font-weight="400" style="-inkscape-font-specification:Consolas" transform="matrix(3.1250002,0,0,3.1250002,116.66667,116.66667) translate(89.71875,54)"><tspan x="0" y="0">W</tspan></text><text font-family="Consolas" font-size="13" font-weight="400" style="-inkscape-font-specification:Consolas" transform="matrix(3.1250002,0,0,3.1250002,116.66667,116.66667) translate(110.29688,54)"><tspan x="0" y="0">E</tspan></text><text font-family="Consolas" font-size="13" font-weight="400" style="-inkscape-font-specification:Consolas" transform="matrix(3.1250002,0,0,3.1250002,116.66667,116.66667) translate(130.70312,54)"><tspan x="0" y="0">R</tspan></text><text font-family="Consolas" font-size="13" font-weight="400" style="-inkscape-font-specification:Consolas" transform="matrix(3.1250002,0,0,3.1250002,116.66667,116.66667) translate(151,54)"><tspan x="0" y="0">T</tspan></text><text font-family="Consolas" font-size="13" font-weight="400" style="-inkscape-font-specification:Consolas" transform="matrix(3.1250002,0,0,3.1250002,116.66667,116.66667) translate(171.29688,54)"><tspan x="0" y="0">Y</tspan></text><text font-family="Consolas" font-size="13" font-weight="400" style="-inkscape-font-specification:Consolas" transform="matrix(3.1250002,0,0,3.1250002,116.66667,116.66667) translate(191.59375,54)"><tspan x="0" y="0">U</tspan></text><text font-family="Consolas" font-size="13" font-weight="400" style="-inkscape-font-specification:Consolas" transform="matrix(3.1250002,0,0,3.1250002,116.66667,116.66667) translate(211.89063,54)"><tspan x="0" y="0">I</tspan></text><text font-family="Consolas" font-size="13" font-weight="400" style="-inkscape-font-specification:Consolas" transform="matrix(3.1250002,0,0,3.1250002,116.66667,116.66667) translate(232.45313,54)"><tspan x="0" y="0">O</tspan></text><text font-family="Consolas" font-size="13" font-weight="400" style="-inkscape-font-specification:Consolas" transform="matrix(3.1250002,0,0,3.1250002,116.66667,116.66667) translate(253.40625,54)"><tspan x="0" y="0">P</tspan></text><text font-family="Consolas" font-size="13" font-weight="400" style="-inkscape-font-specification:Consolas" transform="matrix(3.1250002,0,0,3.1250002,116.66667,116.66667) translate(274.375,54)"><tspan x="0 7" y="0">[{</tspan></text><text font-family="Consolas" font-size="13" font-weight="400" style="-inkscape-font-specification:Consolas" transform="matrix(3.1250002,0,0,3.1250002,116.66667,116.66667) translate(295.60938,54)"><tspan x="0 7" y="0">]}</tspan></text><text font-family="Consolas" font-size="13" font-weight="400" style="-inkscape-font-specification:Consolas" transform="matrix(3.1250002,0,0,3.1250002,116.66667,116.66667) translate(316.125,54)"><tspan x="0 7" y="0">\|</tspan></text><text font-family="Consolas" font-size="13" font-weight="400" style="-inkscape-font-specification:Consolas" transform="matrix(3.1250002,0,0,3.1250002,116.66667,116.66667) translate(13,76)"><tspan x="0 7 14 21 29 36 43 50" y="0">CapsLock</tspan></text><text font-family="Consolas" font-size="13" font-weight="400" style="-inkscape-font-specification:Consolas" transform="matrix(3.1250002,0,0,3.1250002,116.66667,116.66667) translate(76.1875,76)"><tspan x="0" y="0">A</tspan></text><text font-family="Consolas" font-size="13" font-weight="400" style="-inkscape-font-specification:Consolas" transform="matrix(3.1250002,0,0,3.1250002,116.66667,116.66667) translate(96.578125,76)"><tspan x="0" y="0">S</tspan></text><text font-family="Consolas" font-size="13" font-weight="400" style="-inkscape-font-specification:Consolas" transform="matrix(3.1250002,0,0,3.1250002,116.66667,116.66667) translate(117.17187,76)"><tspan x="0" y="0">D</tspan></text><text font-family="Consolas" font-size="13" font-weight="400" style="-inkscape-font-specification:Consolas" transform="matrix(3.1250002,0,0,3.1250002,116.66667,116.66667) translate(137.46875,76)"><tspan x="0" y="0">F</tspan></text><text font-family="Consolas" font-size="13" font-weight="400" style="-inkscape-font-specification:Consolas" transform="matrix(3.1250002,0,0,3.1250002,116.66667,116.66667) translate(157.76562,76)"><tspan x="0" y="0">G</tspan></text><text font-family="Consolas" font-size="13" font-weight="400" style="-inkscape-font-specification:Consolas" transform="matrix(3.1250002,0,0,3.1250002,116.66667,116.66667) translate(178.0625,76)"><tspan x="0" y="0">H</tspan></text><text font-family="Consolas" font-size="13" font-weight="400" style="-inkscape-font-specification:Consolas" transform="matrix(3.1250002,0,0,3.1250002,116.66667,116.66667) translate(198.35938,76)"><tspan x="0" y="0">J</tspan></text><text font-family="Consolas" font-size="13" font-weight="400" style="-inkscape-font-specification:Consolas" transform="matrix(3.1250002,0,0,3.1250002,116.66667,116.66667) translate(218.65625,76)"><tspan x="0" y="0">K</tspan></text><text font-family="Consolas" font-size="13" font-weight="400" style="-inkscape-font-specification:Consolas" transform="matrix(3.1250002,0,0,3.1250002,116.66667,116.66667) translate(239.48438,76)"><tspan x="0" y="0">L</tspan></text><text font-family="Consolas" font-size="13" font-weight="400" style="-inkscape-font-specification:Consolas" transform="matrix(3.1250002,0,0,3.1250002,116.66667,116.66667) translate(260.42188,76)"><tspan x="0 7" y="0">;:</tspan></text><text font-family="Consolas" font-size="13" font-weight="400" style="-inkscape-font-specification:Consolas" transform="matrix(3.1250002,0,0,3.1250002,116.66667,116.66667) translate(281.75,76)"><tspan x="0 7" y="0">&apos;&quot;</tspan></text><text font-family="Consolas" font-size="13" font-weight="400" style="-inkscape-font-specification:Consolas" transform="matrix(3.1250002,0,0,3.1250002,116.66667,116.66667) translate(302.70313,75)"><tspan x="0 7 14 21 29" y="0">Enter</tspan></text><text font-family="CambriaMath" font-size="13" font-weight="400" style="-inkscape-font-specification:CambriaMath" transform="matrix(3.1250002,0,0,3.1250002,116.66667,116.66667) translate(338.44043,75)"><tspan x="0" y="0">↵</tspan></text><text font-family="CambriaMath" font-size="13" font-weight="400" style="-inkscape-font-specification:CambriaMath" transform="matrix(3.1250002,0,0,3.1250002,116.66667,116.66667) translate(13,97)"><tspan x="0" y="0">⇧</tspan></text><text font-family="Consolas" font-size="13" font-weight="400" style="-inkscape-font-specification:Consolas" transform="matrix(3.1250002,0,0,3.1250002,116.66667,116.66667) translate(21,97)"><tspan x="0 7 14 21 29" y="0">Shift</tspan></text><text font-family="Consolas" font-size="13" font-weight="400" style="-inkscape-font-specification:Consolas" transform="matrix(3.1250002,0,0,3.1250002,116.66667,116.66667) translate(82.953125,98)"><tspan x="0" y="0">Z</tspan></text><text font-family="Consolas" font-size="13" font-weight="400" style="-inkscape-font-specification:Consolas" transform="matrix(3.1250002,0,0,3.1250002,116.66667,116.66667) translate(103.4375,98)"><tspan x="0" y="0">X</tspan></text><text font-family="Consolas" font-size="13" font-weight="400" style="-inkscape-font-specification:Consolas" transform="matrix(3.1250002,0,0,3.1250002,116.66667,116.66667) translate(123.9375,98)"><tspan x="0" y="0">C</tspan></text><text font-family="Consolas" font-size="13" font-weight="400" style="-inkscape-font-specification:Consolas" transform="matrix(3.1250002,0,0,3.1250002,116.66667,116.66667) translate(144.23437,98)"><tspan x="0" y="0">V</tspan></text><text font-family="Consolas" font-size="13" font-weight="400" style="-inkscape-font-specification:Consolas" transform="matrix(3.1250002,0,0,3.1250002,116.66667,116.66667) translate(164.53125,98)"><tspan x="0" y="0">B</tspan></text><text font-family="Consolas" font-size="13" font-weight="400" style="-inkscape-font-specification:Consolas" transform="matrix(3.1250002,0,0,3.1250002,116.66667,116.66667) translate(184.82813,98)"><tspan x="0" y="0">N</tspan></text><text font-family="Consolas" font-size="13" font-weight="400" style="-inkscape-font-specification:Consolas" transform="matrix(3.1250002,0,0,3.1250002,116.66667,116.66667) translate(205.125,98)"><tspan x="0" y="0">M</tspan></text><text font-family="Consolas" font-size="13" font-weight="400" style="-inkscape-font-specification:Consolas" transform="matrix(3.1250002,0,0,3.1250002,116.66667,116.66667) translate(225.42188,98)"><tspan x="0 7" y="0">,&lt;</tspan></text><text font-family="Consolas" font-size="13" font-weight="400" style="-inkscape-font-specification:Consolas" transform="matrix(3.1250002,0,0,3.1250002,116.66667,116.66667) translate(246.42188,98)"><tspan x="0 7" y="0">.&gt;</tspan></text><text font-family="Consolas" font-size="13" font-weight="400" style="-inkscape-font-specification:Consolas" transform="matrix(3.1250002,0,0,3.1250002,116.66667,116.66667) translate(267.40625,98)"><tspan x="0 7" y="0">/?</tspan></text><text font-family="CambriaMath" font-size="13" font-weight="400" style="-inkscape-font-specification:CambriaMath" transform="matrix(3.1250002,0,0,3.1250002,116.66667,116.66667) translate(288.85938,97)"><tspan x="0" y="0">⇧</tspan></text><text font-family="Consolas" font-size="13" font-weight="400" style="-inkscape-font-specification:Consolas" transform="matrix(3.1250002,0,0,3.1250002,116.66667,116.66667) translate(296.85938,97)"><tspan x="0 7 14 21 29" y="0">Shift</tspan></text><text font-family="Consolas" font-size="13" font-weight="400" style="-inkscape-font-specification:Consolas" transform="matrix(3.1250002,0,0,3.1250002,116.66667,116.66667) translate(13,120)"><tspan x="0 7 14 21" y="0">Ctrl</tspan></text><text font-family="CambriaMath" font-size="13" font-weight="400" style="-inkscape-font-specification:CambriaMath" transform="matrix(3.1250002,0,0,3.1250002,116.66667,116.66667) translate(58.671875,119)"><tspan x="0" y="0">⌘</tspan></text><text font-family="Consolas" font-size="13" font-weight="400" style="-inkscape-font-specification:Consolas" transform="matrix(3.1250002,0,0,3.1250002,116.66667,116.66667) translate(89.71875,120)"><tspan x="0 7 14" y="0">Alt</tspan></text><text font-family="Consolas" font-size="13" font-weight="400" style="-inkscape-font-specification:Consolas" transform="matrix(3.1250002,0,0,3.1250002,116.66667,116.66667) translate(232.45313,120)"><tspan x="0 7 14" y="0">Alt</tspan></text><text font-family="CambriaMath" font-size="13" font-weight="400" style="-inkscape-font-specification:CambriaMath" transform="matrix(3.1250002,0,0,3.1250002,116.66667,116.66667) translate(260.42188,119)"><tspan x="0" y="0">⌘</tspan></text><text font-family="CambriaMath" font-size="13" font-weight="400" style="-inkscape-font-specification:CambriaMath" transform="matrix(3.1250002,0,0,3.1250002,116.66667,116.66667) translate(288.85938,119)"><tspan x="0" y="0">▤</tspan></text><text font-family="Consolas" font-size="13" font-weight="400" style="-inkscape-font-specification:Consolas" transform="matrix(3.1250002,0,0,3.1250002,116.66667,116.66667) translate(316.125,120)"><tspan x="0 7 14 21" y="0">Ctrl</tspan></text></g></svg>